<svg width="1440" height="320" xmlns="http://www.w3.org/2000/svg" className="bg-[#b3b7fe]">
 <title>Wave-invert</title>
 <g>
  <title>Layer 1</title>
  <path fill="#4f58fd" fill-opacity="0.67" d="m0,75l80,26.7c80,26.3 240,80.3 400,64c160,-15.7 320,-101.7 480,-138.7c160,-37 320,-27 400,-21.3l80,5.3l0,256l-80,0c-80,0 -240,0 -400,0c-160,0 -320,0 -480,0c-160,0 -320,0 -400,0l-80,0l0,-192z" id="svg_2" transform="rotate(-180 720 133.52)"/>
  <path fill="#02087e" fill-opacity="0.33" d="m0,0l80,10.7c80,10.3 240,32.3 400,69.3c160,37 320,91 480,101.3c160,10.7 320,-21.3 400,-37.3l80,-16l0,160l-80,0c-80,0 -240,0 -400,0c-160,0 -320,0 -480,0c-160,0 -320,0 -400,0l-80,0l0,-288z" id="svg_3" transform="rotate(-180 720 144)"/>
  <path fill="#01054c" stroke="null" opacity="undefined" transform="rotate(-180 720 126.473)" d="m0,28.94551l80,26.7c80,26.3 240,80.3 400,69.3c160,-11 320,-85 480,-112c160,-27 320,-5 400,5.3l80,10.7l0,224l-80,0c-80,0 -240,0 -400,0c-160,0 -320,0 -480,0c-160,0 -320,0 -400,0l-80,0l0,-224z" id="svg_1"/>
 </g>

</svg>